<mxfile host="app.diagrams.net" modified="2024-04-25T08:44:36.945Z" agent="Mozilla/5.0 (Macintosh; Intel Mac OS X 10_15_7) AppleWebKit/537.36 (KHTML, like Gecko) Chrome/123.0.0.0 Safari/537.36" etag="6oIwYncNjPY4WdnquzVT" version="24.2.0" type="github">
  <diagram id="prtHgNgQTEPvFCAcTncT" name="Page-1">
    <mxGraphModel dx="874" dy="581" grid="1" gridSize="10" guides="1" tooltips="1" connect="1" arrows="1" fold="1" page="1" pageScale="1" pageWidth="827" pageHeight="1169" math="0" shadow="0">
      <root>
        <mxCell id="0" />
        <mxCell id="1" parent="0" />
        <mxCell id="MhtLOOjSxLhXtgKrIjzS-6" value="反馈问题用户" style="rounded=0;whiteSpace=wrap;html=1;" vertex="1" parent="1">
          <mxGeometry x="170" y="100" width="110" height="50" as="geometry" />
        </mxCell>
        <mxCell id="MhtLOOjSxLhXtgKrIjzS-7" value="客服" style="rounded=0;whiteSpace=wrap;html=1;" vertex="1" parent="1">
          <mxGeometry x="350" y="100" width="110" height="50" as="geometry" />
        </mxCell>
        <mxCell id="MhtLOOjSxLhXtgKrIjzS-8" value="技术" style="rounded=0;whiteSpace=wrap;html=1;" vertex="1" parent="1">
          <mxGeometry x="530" y="100" width="110" height="50" as="geometry" />
        </mxCell>
        <mxCell id="MhtLOOjSxLhXtgKrIjzS-10" value="" style="endArrow=none;html=1;rounded=0;" edge="1" parent="1" source="MhtLOOjSxLhXtgKrIjzS-16">
          <mxGeometry width="50" height="50" relative="1" as="geometry">
            <mxPoint x="225" y="480" as="sourcePoint" />
            <mxPoint x="224.5" y="150" as="targetPoint" />
          </mxGeometry>
        </mxCell>
        <mxCell id="MhtLOOjSxLhXtgKrIjzS-11" value="" style="endArrow=none;html=1;rounded=0;" edge="1" parent="1" source="MhtLOOjSxLhXtgKrIjzS-25">
          <mxGeometry width="50" height="50" relative="1" as="geometry">
            <mxPoint x="405" y="480" as="sourcePoint" />
            <mxPoint x="404.5" y="150" as="targetPoint" />
          </mxGeometry>
        </mxCell>
        <mxCell id="MhtLOOjSxLhXtgKrIjzS-12" value="" style="endArrow=none;html=1;rounded=0;" edge="1" parent="1">
          <mxGeometry width="50" height="50" relative="1" as="geometry">
            <mxPoint x="585" y="480" as="sourcePoint" />
            <mxPoint x="584.5" y="150" as="targetPoint" />
          </mxGeometry>
        </mxCell>
        <mxCell id="MhtLOOjSxLhXtgKrIjzS-32" value="设置用户日志拉取消息" style="edgeLabel;html=1;align=center;verticalAlign=middle;resizable=0;points=[];" vertex="1" connectable="0" parent="MhtLOOjSxLhXtgKrIjzS-12">
          <mxGeometry x="0.3394" relative="1" as="geometry">
            <mxPoint as="offset" />
          </mxGeometry>
        </mxCell>
        <mxCell id="MhtLOOjSxLhXtgKrIjzS-53" value="定位解决问题" style="edgeLabel;html=1;align=center;verticalAlign=middle;resizable=0;points=[];" vertex="1" connectable="0" parent="MhtLOOjSxLhXtgKrIjzS-12">
          <mxGeometry x="-0.5455" relative="1" as="geometry">
            <mxPoint as="offset" />
          </mxGeometry>
        </mxCell>
        <mxCell id="MhtLOOjSxLhXtgKrIjzS-20" style="edgeStyle=orthogonalEdgeStyle;rounded=0;orthogonalLoop=1;jettySize=auto;html=1;exitX=1;exitY=0.5;exitDx=0;exitDy=0;entryX=0;entryY=0.5;entryDx=0;entryDy=0;" edge="1" parent="1" source="MhtLOOjSxLhXtgKrIjzS-16" target="MhtLOOjSxLhXtgKrIjzS-25">
          <mxGeometry relative="1" as="geometry">
            <mxPoint x="372.5" y="215" as="targetPoint" />
          </mxGeometry>
        </mxCell>
        <mxCell id="MhtLOOjSxLhXtgKrIjzS-29" value="反馈问题" style="edgeLabel;html=1;align=center;verticalAlign=middle;resizable=0;points=[];" vertex="1" connectable="0" parent="MhtLOOjSxLhXtgKrIjzS-20">
          <mxGeometry x="-0.2526" y="1" relative="1" as="geometry">
            <mxPoint as="offset" />
          </mxGeometry>
        </mxCell>
        <mxCell id="MhtLOOjSxLhXtgKrIjzS-24" value="" style="endArrow=none;html=1;rounded=0;" edge="1" parent="1" source="MhtLOOjSxLhXtgKrIjzS-47" target="MhtLOOjSxLhXtgKrIjzS-16">
          <mxGeometry width="50" height="50" relative="1" as="geometry">
            <mxPoint x="225" y="480" as="sourcePoint" />
            <mxPoint x="224.5" y="150" as="targetPoint" />
          </mxGeometry>
        </mxCell>
        <mxCell id="MhtLOOjSxLhXtgKrIjzS-16" value="" style="rounded=0;whiteSpace=wrap;html=1;" vertex="1" parent="1">
          <mxGeometry x="206.25" y="200" width="37.5" height="20" as="geometry" />
        </mxCell>
        <mxCell id="MhtLOOjSxLhXtgKrIjzS-26" value="" style="endArrow=none;html=1;rounded=0;" edge="1" parent="1" source="MhtLOOjSxLhXtgKrIjzS-33" target="MhtLOOjSxLhXtgKrIjzS-25">
          <mxGeometry width="50" height="50" relative="1" as="geometry">
            <mxPoint x="405" y="480" as="sourcePoint" />
            <mxPoint x="404.5" y="150" as="targetPoint" />
          </mxGeometry>
        </mxCell>
        <mxCell id="MhtLOOjSxLhXtgKrIjzS-25" value="" style="rounded=0;whiteSpace=wrap;html=1;" vertex="1" parent="1">
          <mxGeometry x="386.25" y="200" width="37.5" height="20" as="geometry" />
        </mxCell>
        <mxCell id="MhtLOOjSxLhXtgKrIjzS-27" value="" style="rounded=0;whiteSpace=wrap;html=1;" vertex="1" parent="1">
          <mxGeometry x="566.25" y="200" width="37.5" height="20" as="geometry" />
        </mxCell>
        <mxCell id="MhtLOOjSxLhXtgKrIjzS-28" style="edgeStyle=orthogonalEdgeStyle;rounded=0;orthogonalLoop=1;jettySize=auto;html=1;exitX=1;exitY=0.5;exitDx=0;exitDy=0;entryX=0;entryY=0.5;entryDx=0;entryDy=0;" edge="1" parent="1">
          <mxGeometry relative="1" as="geometry">
            <mxPoint x="424.25" y="209.5" as="sourcePoint" />
            <mxPoint x="566.25" y="209.5" as="targetPoint" />
          </mxGeometry>
        </mxCell>
        <mxCell id="MhtLOOjSxLhXtgKrIjzS-30" value="反馈问题" style="edgeLabel;html=1;align=center;verticalAlign=middle;resizable=0;points=[];" vertex="1" connectable="0" parent="MhtLOOjSxLhXtgKrIjzS-28">
          <mxGeometry x="-0.0599" y="5" relative="1" as="geometry">
            <mxPoint y="1" as="offset" />
          </mxGeometry>
        </mxCell>
        <mxCell id="MhtLOOjSxLhXtgKrIjzS-34" value="" style="endArrow=none;html=1;rounded=0;" edge="1" parent="1" target="MhtLOOjSxLhXtgKrIjzS-33">
          <mxGeometry width="50" height="50" relative="1" as="geometry">
            <mxPoint x="405" y="480" as="sourcePoint" />
            <mxPoint x="405" y="220" as="targetPoint" />
          </mxGeometry>
        </mxCell>
        <mxCell id="MhtLOOjSxLhXtgKrIjzS-33" value="" style="rounded=0;whiteSpace=wrap;html=1;" vertex="1" parent="1">
          <mxGeometry x="386.25" y="290" width="37.5" height="20" as="geometry" />
        </mxCell>
        <mxCell id="MhtLOOjSxLhXtgKrIjzS-36" style="edgeStyle=orthogonalEdgeStyle;rounded=0;orthogonalLoop=1;jettySize=auto;html=1;exitX=0;exitY=0.5;exitDx=0;exitDy=0;entryX=1;entryY=0.5;entryDx=0;entryDy=0;" edge="1" parent="1" source="MhtLOOjSxLhXtgKrIjzS-41" target="MhtLOOjSxLhXtgKrIjzS-33">
          <mxGeometry relative="1" as="geometry">
            <mxPoint x="546.25" y="299.5" as="sourcePoint" />
            <mxPoint x="430" y="300" as="targetPoint" />
            <Array as="points">
              <mxPoint x="566" y="301" />
              <mxPoint x="473" y="301" />
              <mxPoint x="473" y="300" />
            </Array>
          </mxGeometry>
        </mxCell>
        <mxCell id="MhtLOOjSxLhXtgKrIjzS-45" value="通知用户重启app" style="edgeLabel;html=1;align=center;verticalAlign=middle;resizable=0;points=[];" vertex="1" connectable="0" parent="MhtLOOjSxLhXtgKrIjzS-36">
          <mxGeometry x="0.0142" y="-2" relative="1" as="geometry">
            <mxPoint as="offset" />
          </mxGeometry>
        </mxCell>
        <mxCell id="MhtLOOjSxLhXtgKrIjzS-41" value="" style="rounded=0;whiteSpace=wrap;html=1;" vertex="1" parent="1">
          <mxGeometry x="566.25" y="290" width="37.5" height="20" as="geometry" />
        </mxCell>
        <mxCell id="MhtLOOjSxLhXtgKrIjzS-42" style="edgeStyle=orthogonalEdgeStyle;rounded=0;orthogonalLoop=1;jettySize=auto;html=1;exitX=0;exitY=0.5;exitDx=0;exitDy=0;entryX=1;entryY=0.5;entryDx=0;entryDy=0;" edge="1" parent="1">
          <mxGeometry relative="1" as="geometry">
            <mxPoint x="385.75" y="299.5" as="sourcePoint" />
            <mxPoint x="243.75" y="299.5" as="targetPoint" />
            <Array as="points">
              <mxPoint x="385.75" y="300.5" />
              <mxPoint x="292.75" y="300.5" />
              <mxPoint x="292.75" y="299.5" />
            </Array>
          </mxGeometry>
        </mxCell>
        <mxCell id="MhtLOOjSxLhXtgKrIjzS-46" value="通知用户重启app" style="edgeLabel;html=1;align=center;verticalAlign=middle;resizable=0;points=[];" vertex="1" connectable="0" parent="MhtLOOjSxLhXtgKrIjzS-42">
          <mxGeometry x="0.0524" y="-2" relative="1" as="geometry">
            <mxPoint as="offset" />
          </mxGeometry>
        </mxCell>
        <mxCell id="MhtLOOjSxLhXtgKrIjzS-44" value="" style="rounded=0;whiteSpace=wrap;html=1;" vertex="1" parent="1">
          <mxGeometry x="206.25" y="290" width="37.5" height="20" as="geometry" />
        </mxCell>
        <mxCell id="MhtLOOjSxLhXtgKrIjzS-48" value="" style="endArrow=none;html=1;rounded=0;" edge="1" parent="1" target="MhtLOOjSxLhXtgKrIjzS-47">
          <mxGeometry width="50" height="50" relative="1" as="geometry">
            <mxPoint x="225" y="480" as="sourcePoint" />
            <mxPoint x="225" y="220" as="targetPoint" />
          </mxGeometry>
        </mxCell>
        <mxCell id="MhtLOOjSxLhXtgKrIjzS-47" value="" style="rounded=0;whiteSpace=wrap;html=1;" vertex="1" parent="1">
          <mxGeometry x="206.25" y="350" width="37.5" height="20" as="geometry" />
        </mxCell>
        <mxCell id="MhtLOOjSxLhXtgKrIjzS-49" value="" style="rounded=0;whiteSpace=wrap;html=1;" vertex="1" parent="1">
          <mxGeometry x="566.25" y="350" width="37.5" height="20" as="geometry" />
        </mxCell>
        <mxCell id="MhtLOOjSxLhXtgKrIjzS-50" style="edgeStyle=orthogonalEdgeStyle;rounded=0;orthogonalLoop=1;jettySize=auto;html=1;exitX=1;exitY=0.5;exitDx=0;exitDy=0;entryX=0;entryY=0.5;entryDx=0;entryDy=0;" edge="1" parent="1" target="MhtLOOjSxLhXtgKrIjzS-49">
          <mxGeometry relative="1" as="geometry">
            <mxPoint x="244.25" y="359.5" as="sourcePoint" />
            <mxPoint x="386.25" y="359.5" as="targetPoint" />
          </mxGeometry>
        </mxCell>
        <mxCell id="MhtLOOjSxLhXtgKrIjzS-52" value="日志自动上传" style="edgeLabel;html=1;align=center;verticalAlign=middle;resizable=0;points=[];" vertex="1" connectable="0" parent="MhtLOOjSxLhXtgKrIjzS-50">
          <mxGeometry x="-0.0016" y="2" relative="1" as="geometry">
            <mxPoint as="offset" />
          </mxGeometry>
        </mxCell>
        <mxCell id="MhtLOOjSxLhXtgKrIjzS-56" value="" style="rounded=0;whiteSpace=wrap;html=1;" vertex="1" parent="1">
          <mxGeometry x="386.25" y="430" width="37.5" height="20" as="geometry" />
        </mxCell>
        <mxCell id="MhtLOOjSxLhXtgKrIjzS-57" style="edgeStyle=orthogonalEdgeStyle;rounded=0;orthogonalLoop=1;jettySize=auto;html=1;exitX=0;exitY=0.5;exitDx=0;exitDy=0;entryX=1;entryY=0.5;entryDx=0;entryDy=0;" edge="1" parent="1" source="MhtLOOjSxLhXtgKrIjzS-59" target="MhtLOOjSxLhXtgKrIjzS-56">
          <mxGeometry relative="1" as="geometry">
            <mxPoint x="546.25" y="439.5" as="sourcePoint" />
            <mxPoint x="430" y="440" as="targetPoint" />
            <Array as="points">
              <mxPoint x="566" y="441" />
              <mxPoint x="473" y="441" />
              <mxPoint x="473" y="440" />
            </Array>
          </mxGeometry>
        </mxCell>
        <mxCell id="MhtLOOjSxLhXtgKrIjzS-58" value="解决问题反馈" style="edgeLabel;html=1;align=center;verticalAlign=middle;resizable=0;points=[];" vertex="1" connectable="0" parent="MhtLOOjSxLhXtgKrIjzS-57">
          <mxGeometry x="0.0142" y="-2" relative="1" as="geometry">
            <mxPoint as="offset" />
          </mxGeometry>
        </mxCell>
        <mxCell id="MhtLOOjSxLhXtgKrIjzS-59" value="" style="rounded=0;whiteSpace=wrap;html=1;" vertex="1" parent="1">
          <mxGeometry x="566.25" y="430" width="37.5" height="20" as="geometry" />
        </mxCell>
        <mxCell id="MhtLOOjSxLhXtgKrIjzS-60" style="edgeStyle=orthogonalEdgeStyle;rounded=0;orthogonalLoop=1;jettySize=auto;html=1;exitX=0;exitY=0.5;exitDx=0;exitDy=0;entryX=1;entryY=0.5;entryDx=0;entryDy=0;" edge="1" parent="1">
          <mxGeometry relative="1" as="geometry">
            <mxPoint x="385.75" y="439.5" as="sourcePoint" />
            <mxPoint x="243.75" y="439.5" as="targetPoint" />
            <Array as="points">
              <mxPoint x="385.75" y="440.5" />
              <mxPoint x="292.75" y="440.5" />
              <mxPoint x="292.75" y="439.5" />
            </Array>
          </mxGeometry>
        </mxCell>
        <mxCell id="MhtLOOjSxLhXtgKrIjzS-61" value="反馈" style="edgeLabel;html=1;align=center;verticalAlign=middle;resizable=0;points=[];" vertex="1" connectable="0" parent="MhtLOOjSxLhXtgKrIjzS-60">
          <mxGeometry x="0.0524" y="-2" relative="1" as="geometry">
            <mxPoint as="offset" />
          </mxGeometry>
        </mxCell>
        <mxCell id="MhtLOOjSxLhXtgKrIjzS-62" value="" style="rounded=0;whiteSpace=wrap;html=1;" vertex="1" parent="1">
          <mxGeometry x="206.25" y="430" width="37.5" height="20" as="geometry" />
        </mxCell>
      </root>
    </mxGraphModel>
  </diagram>
</mxfile>
